<svg width="228px" height="46px" viewBox="0 0 228 46" fill="none" xmlns="http://www.w3.org/2000/svg" data-testid="mashreq-logo" class="jss4450"><path d="M71.945 23.177c0 1.795 1.09 3.39 3.007 3.39.475 0 .997-.107 1.426-.306v-4.863c0-.675.092-1.258.108-1.35-.108-.03-.706-.276-1.672-.276-2.04 0-2.869 1.564-2.869 3.405zm7.18-4.878c-.047.23-.123 1.181-.123 1.933v12.9l-2.608.338v-5.016c-.66.246-1.35.368-1.995.368-2.93 0-5.353-2.362-5.353-5.675 0-3.314 2.285-5.63 5.83-5.63 1.963 0 3.987.69 4.248.782zm-28.687.414c.016.077.2.89.2 2.133v7.746h2.592v-7.04c0-.921-.107-1.412-.123-1.474.108-.03.998-.291 2.056-.291.476 0 1.09.107 1.427.215l.782-2.225a8.255 8.255 0 00-1.994-.245c-2.332-.015-4.648 1.074-4.94 1.181zm17.058 3.989c0 .582-.107 1.227-.153 1.426h-6.995c.107 1.427 1.227 2.44 2.96 2.44 1.504 0 2.455-.645 2.608-.737l.89 2.01c-.169.092-1.442.905-3.559.966-3.114.092-5.676-2.424-5.706-5.538-.03-3.175 1.58-5.768 5.016-5.768 3.16.016 4.94 2.194 4.94 5.2zm-2.669-.614c-.015-1.365-.782-2.424-2.24-2.424-1.549 0-2.208 1.212-2.224 2.424h4.464zm-20.54-4.571c-1.688 0-2.915.767-3.053.859v-6.167l-2.608.614v15.77h2.608v-8.008c.368-.246 1.35-.798 2.301-.798 1.274 0 1.994.767 1.994 2.056v6.765h2.608v-7.226c.016-2.393-1.35-3.865-3.85-3.865zM34.04 22.272c-.338-.138-.783-.307-1.09-.43-.797-.306-1.227-.628-1.227-1.227 0-.644.63-.92 1.35-.92 1.212 0 2.301.46 2.378.49l.736-2.009c-.276-.138-1.411-.675-3.175-.66-1.964.016-3.942 1.105-3.942 3.253 0 1.81 1.288 2.592 2.408 3.006.337.123.798.292 1.09.415.873.352 1.21.797 1.21 1.303 0 .722-.628 1.228-1.886 1.228-1.166 0-2.316-.63-2.362-.645l-.752 2.04c.2.077 1.734.706 3.574.706 2.255 0 4.31-1.012 4.31-3.39 0-1.733-1.226-2.608-2.622-3.16zm-7.333 3.958c0 1.12.153 1.564.2 1.764-.17.046-2.348.844-4.664.844-2.347 0-4.847-.829-4.847-3.36 0-2.945 3.175-3.175 5.154-3.635.936-.215 1.55-.476 1.55-1.105 0-.583-.706-1.012-1.81-1.012-1.489 0-2.885.644-3.023.705l-.89-1.963c.2-.092 2.071-.936 4.066-.936 2.684 0 4.264 1.396 4.264 3.958v4.74zm-2.516.138c-.015-.092-.092-.506-.092-1.227v-1.856c-.368.291-1.258.521-2.04.72-.936.215-1.81.537-1.81 1.35 0 .998.951 1.366 1.963 1.366 1.059-.016 1.887-.322 1.98-.353zm-12.763-8.851c-1.702 0-3.19.966-3.374 1.073-.123-.122-.92-1.073-3.16-1.073-2.102 0-4.633.997-4.894 1.104.03.108.2.767.2 1.396v8.575h2.592v-7.271c0-.629-.077-.997-.092-1.059.107-.046.982-.475 1.933-.475 1.227 0 1.902.767 1.902 1.979v6.826h2.608v-6.596c0-.966-.138-1.55-.169-1.657.138-.061 1.058-.552 2.01-.552 1.273 0 1.902.798 1.902 1.994v6.796h2.607V21.26c0-2.347-1.626-3.743-4.065-3.743zM161.255 15.446l1.749 1.718 1.749-1.841-1.795-1.749-1.703 1.703-1.687-1.703-1.718 1.826 1.748 1.748 1.657-1.702zm27.812-2.946l-1.764-1.78-1.734 1.826 1.749 1.75 1.749-1.796zm-1.764 2.976l1.748 1.719 1.765-1.841-1.795-1.75-1.703 1.704-1.687-1.688-1.718 1.81 1.748 1.765 1.642-1.719zm35.282 10.846c0 1.012.245 1.687.276 1.81-.153.061-2.132.874-5.016.874 0 0-9.204-.015-10.385-.015-2.624 0-3.605-1.12-3.851-1.38-.215.383-1.089 1.38-2.945 1.38l-24.79-.03c-.153 2.776-2.362 5.63-7.47 5.936l-.23-1.703c3.252-.537 5.108-2.378 5.108-5.323 0-1.948-.614-3.313-1.749-4.54l1.81-1.826c1.273.905 2.393 2.685 2.562 4.909h6.688c-.076-.108-.214-.568-.214-1.15 0-1.734-1.335-2.562-1.673-2.823l1.734-1.749c.905.736 2.362 1.948 2.347 4.571 0 .645.138 1.013.215 1.166h2.838c-.046-.122-.215-.414-.215-1.258 0-1.733-1.35-2.485-1.672-2.715l1.718-1.749c.905.737 2.362 1.949 2.347 4.572 0 .644.123.966.215 1.166h3.022c-.092-.154-.261-.369-.261-1.274 0-2.07-.583-3.175-1.948-4.172l1.764-1.764c1.365 1.043 2.669 2.991 2.669 6.29 0 .505.199.797.261.904h4.234c1.978 0 2.454-1.288 2.93-2.055 1.718-2.838 2.73-5.216 5.169-5.216 1.979 0 2.777 2.01 4.157 4.464.844 1.519.645 2.684.568 2.823h5.17c1.426 0 2.178-.369 2.255-.4-.031-.153-.246-.766-.246-2.346 0-3.651.015-10.416.015-10.416l2.593-.598v13.637zm-12.548-1.442c-1.074-1.964-1.412-2.9-2.317-2.9-1.058 0-1.488 1.028-2.699 3.16.444.43 1.196 1.29 3.313 1.305h1.058c.675 0 1.151-.66.645-1.565zm15.371-11.582l-.016 15.724h2.593L228 12.7l-2.592.598zm-60.993 8.268c1.227 1.32 2.301 2.746 2.301 5.845 0 4.004-2.868 6.642-9.771 6.642-9.711-.015-9.143-8.069-6.52-12.487l2.056 1.044c-3.145 5.215-.675 8.835 4.464 8.85 4.203 0 6.811-1.073 7.163-2.5-.368 0-2.577.016-2.899.016-5.967 0-3.881-7.808-.445-8.713 1.672-.46 3.007.613 3.651 1.303zm-.307 4.832c-.736-2.776-2.316-3.635-3.129-3.482-2.071.4-2.132 3.482.844 3.482h2.285zM137.386 27.641c1.611-.844 2.5-2.301 3.145-3.942-1.718-.384-3.421-.46-5.017.383-1.61.844-2.5 2.301-3.144 3.943 1.703.398 3.405.46 5.016-.384zM135.116 22.303c-1.412 2.24-3.283 3.114-4.924 3.605-.277-1.703-.292-3.774 1.119-6.014 1.412-2.24 3.268-3.114 4.925-3.605.276 1.718.291 3.774-1.12 6.014zM129.655 18.483c.046-3.19-1.473-5.599-2.486-6.949-1.104 1.396-2.653 3.682-2.699 6.872-.046 2.946 1.227 5.277 2.485 6.95 1.304-1.657 2.654-3.928 2.7-6.873zM121.862 16.673c-1.933-3.574-5.047-5.507-7.087-6.673-.108 2.393-.292 5.921 1.687 9.572 1.795 3.329 4.51 5.17 7.087 6.673.184-2.96.062-6.32-1.687-9.572zM112.198 19.22c-4.449-2.516-9.542-3.1-12.886-3.053 1.611 2.776 4.694 6.887 9.25 9.465 4.387 2.485 9.342 3.098 12.886 3.052-1.856-3.13-4.848-6.98-9.25-9.465zM103.76 27.795c-5.537 0-11.735 1.64-16.69 3.942 5.017 2.286 10.984 3.942 16.69 3.942 4.541 0 9.972-.89 16.691-3.942-7.364-3.298-12.457-3.927-16.691-3.942z" fill="#fff"></path></svg>